<svg width="122" height="31" viewBox="0 0 122 31" fill="none" xmlns="http://www.w3.org/2000/svg">
<path d="M41.56 25L45.096 6.8H48.424L52.506 17.538L56.588 6.8H59.916L63.452 25H59.474L57.576 15.172L53.858 25H51.154L47.436 15.172L45.538 25H41.56ZM73.8518 25.338C72.6211 25.338 71.4641 25.0953 70.3808 24.61C69.2975 24.116 68.3441 23.4357 67.5208 22.569C66.6975 21.7023 66.0518 20.7013 65.5838 19.566C65.1158 18.422 64.8818 17.2 64.8818 15.9C64.8818 14.6 65.1158 13.3823 65.5838 12.247C66.0518 11.103 66.6975 10.0977 67.5208 9.231C68.3441 8.36433 69.2975 7.68833 70.3808 7.203C71.4641 6.709 72.6211 6.462 73.8518 6.462C75.0911 6.462 76.2525 6.709 77.3358 7.203C78.4191 7.68833 79.3725 8.36433 80.1958 9.231C81.0191 10.0977 81.6605 11.103 82.1198 12.247C82.5878 13.3823 82.8218 14.6 82.8218 15.9C82.8218 17.2 82.5878 18.422 82.1198 19.566C81.6605 20.7013 81.0191 21.7023 80.1958 22.569C79.3725 23.4357 78.4191 24.116 77.3358 24.61C76.2525 25.0953 75.0911 25.338 73.8518 25.338ZM73.8518 21.438C74.5451 21.438 75.1951 21.295 75.8018 21.009C76.4171 20.7143 76.9588 20.3157 77.4268 19.813C77.8948 19.3017 78.2588 18.7123 78.5188 18.045C78.7875 17.3777 78.9218 16.6627 78.9218 15.9C78.9218 15.1373 78.7875 14.4223 78.5188 13.755C78.2588 13.0877 77.8948 12.5027 77.4268 12C76.9588 11.4887 76.4171 11.09 75.8018 10.804C75.1951 10.5093 74.5451 10.362 73.8518 10.362C73.1585 10.362 72.5041 10.5093 71.8888 10.804C71.2821 11.09 70.7448 11.4887 70.2768 12C69.8088 12.5027 69.4405 13.0877 69.1718 13.755C68.9118 14.4223 68.7818 15.1373 68.7818 15.9C68.7818 16.6627 68.9118 17.3777 69.1718 18.045C69.4405 18.7123 69.8088 19.3017 70.2768 19.813C70.7448 20.3157 71.2821 20.7143 71.8888 21.009C72.5041 21.295 73.1585 21.438 73.8518 21.438ZM85.0288 25V6.8H95.8448V10.7H88.9288V13.3H94.5968V17.2H88.9288V25H85.0288ZM98.0633 25V6.8H101.963V25H98.0633ZM105.468 25V6.8H109.68L116.336 17.954V6.8H120.236V25H116.024L109.368 13.846V25H105.468Z" fill="white"/>
<path d="M0 6.81818C0 4.70946 1.70946 3 3.81818 3H8.90909C11.0178 3 12.7273 4.70946 12.7273 6.81818V15.7273H3.81818C1.70946 15.7273 0 14.0178 0 11.9091V6.81818Z" fill="white"/>
<path d="M28 6.81818C28 4.70946 26.2905 3 24.1818 3H19.0909C16.9822 3 15.2727 4.70946 15.2727 6.81818V15.7273H24.1818C26.2905 15.7273 28 14.0178 28 11.9091V6.81818Z" fill="white"/>
<path d="M0 27.1818C0 29.2905 1.70946 31 3.81818 31H8.90909C11.0178 31 12.7273 29.2905 12.7273 27.1818V18.2727H3.81818C1.70946 18.2727 0 19.9822 0 22.0909V27.1818Z" fill="white"/>
</svg>
