<svg version="1.2" xmlns="http://www.w3.org/2000/svg" viewBox="0 0 28 31" width="28" height="31">
	<title>Logo-svg</title>
	<style>
		.s0 { fill: #ffffff } 
	</style>
	<path id="Layer" fill-rule="evenodd" class="s0" d="m41.6 25l3.5-18.2h3.3l4.1 10.7 4.1-10.7h3.3l3.6 18.2h-4l-1.9-9.8-3.7 9.8h-2.7l-3.8-9.8-1.9 9.8zm32.3 0.3q-1.8 0-3.4-0.7-1.7-0.7-2.9-2-1.2-1.3-1.9-3-0.7-1.7-0.7-3.7 0-2 0.7-3.7 0.7-1.7 1.9-3 1.2-1.3 2.9-2 1.6-0.7 3.4-0.7 1.9 0 3.5 0.7 1.6 0.7 2.9 2 1.2 1.3 1.9 3 0.7 1.7 0.7 3.7 0 2-0.7 3.7-0.7 1.7-1.9 3-1.3 1.3-2.9 2-1.6 0.7-3.5 0.7zm0-3.9q1.1 0 2-0.4 0.9-0.4 1.6-1.2 0.7-0.8 1.1-1.8 0.4-1 0.4-2.1 0-1.1-0.4-2.1-0.4-1-1.1-1.8-0.7-0.8-1.6-1.2-0.9-0.4-2-0.4-1 0-1.9 0.4-0.9 0.4-1.6 1.2-0.7 0.8-1.2 1.8-0.3 1-0.3 2.1 0 1.1 0.3 2.1 0.5 1 1.2 1.8 0.7 0.8 1.6 1.2 0.9 0.4 1.9 0.4zm11.2 3.6v-18.2h10.8v3.9h-6.9v2.6h5.7v3.9h-5.7v7.8zm13 0v-18.2h3.9v18.2zm7.4 0v-18.2h4.3l6.6 11.2v-11.2h3.9v18.2h-4.2l-6.7-11.2v11.2z"/>
	<path id="Layer" class="s0" d="m0 6.8c0-2.1 1.7-3.8 3.8-3.8h5.1c2.1 0 3.8 1.7 3.8 3.8v8.9h-8.9c-2.1 0-3.8-1.7-3.8-3.8z"/>
	<path id="Layer" class="s0" d="m28 6.8c0-2.1-1.7-3.8-3.8-3.8h-5.1c-2.1 0-3.8 1.7-3.8 3.8v8.9h8.9c2.1 0 3.8-1.7 3.8-3.8z"/>
	<path id="Layer" class="s0" d="m0 27.2c0 2.1 1.7 3.8 3.8 3.8h5.1c2.1 0 3.8-1.7 3.8-3.8v-8.9h-8.9c-2.1 0-3.8 1.7-3.8 3.8z"/>
</svg>