<svg width="24" height="23" viewBox="0 0 24 23" fill="none" xmlns="http://www.w3.org/2000/svg">
<style>
		.s0 { fill: #fff } 
	</style>
<path fill-rule="evenodd" clip-rule="evenodd" d="M14.0671 2.20306L14.0248 2.17868C12.7415 1.4377 11.7202 0.848082 10.8561 0.477132C9.96717 0.0954968 9.15558 -0.0957239 8.30191 0.0475493C8.02271 0.0944062 7.74864 0.167844 7.48343 0.266861C6.67248 0.569621 6.06524 1.14101 5.48618 1.91601C5.15654 2.35719 4.81773 2.89027 4.4447 3.5141C4.84082 3.42939 5.25181 3.3848 5.67322 3.3848H6.29075C6.42792 3.17553 6.55926 2.98589 6.68781 2.81384C7.18112 2.1536 7.57614 1.83338 8.00807 1.67212C8.18373 1.60654 8.36526 1.5579 8.55018 1.52686C9.00487 1.45055 9.50708 1.53036 10.2644 1.85549C10.9974 2.17015 11.885 2.67576 13.1139 3.3848H16.1139L14.0671 2.20306Z" fill="black"/>
<path fill-rule="evenodd" clip-rule="evenodd" d="M5.67308 3.55795C2.53992 3.55795 0 6.09788 0 9.23103V16.6156C0 19.7488 2.53992 22.2887 5.67308 22.2887H17.9808C21.0689 22.2887 23.5808 19.8212 23.6523 16.7503H23.6535V16.6816C23.6537 16.6597 23.6538 16.6377 23.6538 16.6156V9.23103C23.6538 9.20901 23.6537 9.18702 23.6535 9.16505V9.09641H23.6523C23.5808 6.02545 21.0689 3.55795 17.9808 3.55795H5.67308ZM22.1517 9.09641C22.0807 6.85399 20.2405 5.05795 17.9808 5.05795H5.67308C3.36835 5.05795 1.5 6.9263 1.5 9.23103V16.6156C1.5 18.9204 3.36835 20.7887 5.67308 20.7887H17.9808C20.2405 20.7887 22.0807 18.9927 22.1517 16.7503H17.3906C15.2771 16.7503 13.5637 15.0369 13.5637 12.9233C13.5637 10.8098 15.2771 9.09641 17.3906 9.09641H22.1517ZM15.0637 12.9233C15.0637 11.6382 16.1055 10.5964 17.3906 10.5964H22.1535V15.2503H17.3906C16.1055 15.2503 15.0637 14.2085 15.0637 12.9233Z" fill="black"/>
<circle cx="17.3672" cy="12.9232" r="0.923077" fill="black"/>
</svg>
